<svg width="37" height="40" viewBox="0 0 37 40" fill="none" xmlns="http://www.w3.org/2000/svg">
<path fill-rule="evenodd" clip-rule="evenodd" d="M18.5 0.158325C19.1386 0.158325 19.6562 0.693842 19.6562 1.35444V38.4339H17.3438V1.35444C17.3438 0.693842 17.8614 0.158325 18.5 0.158325Z" fill="#78706A"/>
<path fill-rule="evenodd" clip-rule="evenodd" d="M5.70417 3.3479H32.1306C32.4832 3.3479 32.8135 3.52605 33.0154 3.82506L36.5685 9.08794C36.8277 9.4719 36.8277 9.98241 36.5685 10.3664L33.0154 15.6293C32.8135 15.9283 32.4832 16.1064 32.1306 16.1064H5.70417C5.10816 16.1064 4.625 15.6066 4.625 14.99V4.46427C4.625 3.84772 5.10816 3.3479 5.70417 3.3479Z" fill="#FFBD66"/>
<path fill-rule="evenodd" clip-rule="evenodd" d="M31.2958 19.2961H4.8694C4.51685 19.2961 4.18652 19.4743 3.98465 19.7733L0.431547 25.0362C0.172329 25.4201 0.172329 25.9307 0.431547 26.3146L3.98465 31.5775C4.18652 31.8765 4.51685 32.0547 4.8694 32.0547H31.2958C31.8918 32.0547 32.375 31.5548 32.375 30.9383V20.4125C32.375 19.796 31.8918 19.2961 31.2958 19.2961Z" fill="#9BD0B0"/>
</svg>
