<svg width="23" height="31" viewBox="0 0 23 31" fill="none" xmlns="http://www.w3.org/2000/svg">
<path d="M21.7223 3.875H1.27783V23.25H21.7223V3.875Z" fill="#F8D4A1"/>
<path fill-rule="evenodd" clip-rule="evenodd" d="M1.27783 2.58331L3.3849 0.515869H19.5882L21.7223 2.58331V3.87498H1.27783V2.58331Z" fill="#729CB2"/>
<mask id="mask0" mask-type="alpha" maskUnits="userSpaceOnUse" x="0" y="0" width="23" height="31">
<path d="M2.18117 2.58333L3.45894 1.29167H19.5411L20.8188 2.58333H2.18117ZM20.4444 9.04167H16.6111V5.16667H20.4444V9.04167ZM20.4444 15.5H16.6111V11.625H20.4444V15.5ZM20.4444 21.9583H16.6111V18.0833H20.4444V21.9583ZM14.0556 9.04167H8.94444V5.16667H14.0556V9.04167ZM14.0556 15.5H8.94444V11.625H14.0556V15.5ZM14.0556 21.9583H8.94444V18.0833H14.0556V21.9583ZM6.38889 9.04167H2.55556V5.16667H6.38889V9.04167ZM6.38889 15.5H2.55556V11.625H6.38889V15.5ZM6.38889 21.9583H2.55556V18.0833H6.38889V21.9583ZM20.2566 0.188583C20.1378 0.0684583 19.9755 0 19.8056 0H3.19444C3.0245 0 2.86222 0.0684583 2.74211 0.188583L0.186556 2.77192C0.185278 2.77192 0.185278 2.7745 0.184 2.7745C0.0664444 2.89721 0 3.09225 0 3.22917V30.3542C0 30.7107 0.286222 31 0.638889 31H8.94444V25.1875C8.94444 24.831 9.23067 24.5417 9.58333 24.5417H13.4167C13.7693 24.5417 14.0556 24.831 14.0556 25.1875V31H22.3611C22.7138 31 23 30.7107 23 30.3542V3.22917C23 3.09354 22.931 2.89204 22.8134 2.7745L20.2566 0.188583Z" fill="white"/>
</mask>
<g mask="url(#mask0)">
<path d="M2.18117 2.58333L3.45894 1.29167H19.5411L20.8188 2.58333H2.18117ZM20.4444 9.04167H16.6111V5.16667H20.4444V9.04167ZM20.4444 15.5H16.6111V11.625H20.4444V15.5ZM20.4444 21.9583H16.6111V18.0833H20.4444V21.9583ZM14.0556 9.04167H8.94444V5.16667H14.0556V9.04167ZM14.0556 15.5H8.94444V11.625H14.0556V15.5ZM14.0556 21.9583H8.94444V18.0833H14.0556V21.9583ZM6.38889 9.04167H2.55556V5.16667H6.38889V9.04167ZM6.38889 15.5H2.55556V11.625H6.38889V15.5ZM6.38889 21.9583H2.55556V18.0833H6.38889V21.9583ZM20.2566 0.188583C20.1378 0.0684583 19.9755 0 19.8056 0H3.19444C3.0245 0 2.86222 0.0684583 2.74211 0.188583L0.186556 2.77192C0.185278 2.77192 0.185278 2.7745 0.184 2.7745C0.0664444 2.89721 0 3.09225 0 3.22917V30.3542C0 30.7107 0.286222 31 0.638889 31H8.94444V25.1875C8.94444 24.831 9.23067 24.5417 9.58333 24.5417H13.4167C13.7693 24.5417 14.0556 24.831 14.0556 25.1875V31H22.3611C22.7138 31 23 30.7107 23 30.3542V3.22917C23 3.09354 22.931 2.89204 22.8134 2.7745L20.2566 0.188583Z" fill="#24536F"/>
<path d="M23 0H0V2.58333H23V0Z" fill="#729CB2"/>
</g>
</svg>
